<?xml version="1.0" standalone="no"?>
<!DOCTYPE svg PUBLIC "-//W3C//DTD SVG 20010904//EN"
 "http://www.w3.org/TR/2001/REC-SVG-20010904/DTD/svg10.dtd">
<svg version="1.0" xmlns="http://www.w3.org/2000/svg"
 width="200.000000pt" height="200.000000pt" viewBox="0 0 200.000000 200.000000"
 preserveAspectRatio="xMidYMid meet">
<metadata>
Created by potrace 1.11, written by Peter Selinger 2001-2013
</metadata>
<g transform="translate(0.000000,200.000000) scale(0.100000,-0.100000)"
fill="#000000" stroke="none">
<path d="M915 1702 c-291 -29 -540 -244 -610 -526 -18 -76 -26 -211 -14 -266
4 -19 10 -46 12 -60 13 -67 82 -215 112 -240 8 -7 15 -16 15 -21 0 -19 133
-140 179 -164 18 -9 29 -20 26 -25 -3 -5 4 -7 15 -5 11 2 20 -1 20 -6 0 -6 5
-7 10 -4 6 3 10 1 10 -5 0 -6 5 -8 10 -5 6 3 10 1 10 -5 0 -6 4 -9 9 -6 9 6
64 -18 57 -25 -3 -2 10 -3 27 -3 18 1 43 -5 56 -13 13 -8 20 -10 17 -4 -10 15
7 14 23 -2 11 -9 13 -9 7 1 -10 17 -1 15 18 -4 9 -8 16 -12 16 -7 0 5 24 10
53 11 28 2 63 4 77 5 16 1 24 -3 22 -11 -1 -8 2 -11 8 -7 6 3 8 11 5 16 -4 5
2 9 12 9 10 1 41 9 70 19 29 10 50 14 47 10 -2 -4 0 -11 6 -14 6 -4 10 -3 9 2
-3 20 2 33 14 33 7 0 30 9 51 21 21 11 44 18 52 15 7 -3 16 0 20 6 4 6 3 8 -4
4 -6 -3 -13 -2 -17 4 -3 5 0 10 8 10 8 0 18 7 21 16 4 9 9 14 13 10 3 -3 13 3
21 15 9 13 20 18 30 14 9 -3 13 -3 10 1 -11 10 12 45 24 38 7 -4 8 -3 4 4 -4
6 2 17 14 24 11 7 20 18 20 25 0 7 5 13 10 13 6 0 10 7 10 15 0 8 5 15 10 15
6 0 10 7 10 15 0 8 5 15 11 15 5 0 8 4 5 9 -4 5 -2 11 3 13 5 1 11 10 13 18 2
8 10 21 18 28 9 8 10 11 2 7 -11 -6 -11 -1 1 21 12 25 22 54 33 99 19 84 21
189 2 290 -7 39 -12 80 -12 92 0 12 -3 20 -7 18 -7 -5 -35 55 -31 68 1 4 -2 7
-8 7 -5 0 -10 9 -10 20 0 11 -5 20 -11 20 -5 0 -8 4 -5 9 3 5 -1 12 -10 15
-15 6 -17 45 -3 56 4 3 -2 28 -12 56 -16 42 -26 54 -58 68 -26 12 -50 16 -76
12 -26 -4 -45 -1 -61 9 -60 39 -169 87 -209 91 -5 0 -26 4 -45 8 -41 8 -143
13 -185 8z"/>
<path d="M1690 999 c0 -5 5 -7 10 -4 6 3 10 8 10 11 0 2 -4 4 -10 4 -5 0 -10
-5 -10 -11z"/>
<path d="M1646 782 c-3 -5 1 -9 9 -9 8 0 12 4 9 9 -3 4 -7 8 -9 8 -2 0 -6 -4
-9 -8z"/>
<path d="M1536 553 c-6 -14 -5 -15 5 -6 7 7 10 15 7 18 -3 3 -9 -2 -12 -12z"/>
</g>
</svg>
